# xmcd
#
# Track frame offsets: 
#        150
#        28650
#        41275
#        67863
#        91688
#        117350
#        135323
#        150888
#        168018
#        187888
#        204613
#        237500
#        265025
#        281350
#        305425
#
# Disc length: 4296 seconds
#
# Revision: 1
# Processed by: cddbd v1.5.2PL0 Copyright (c) Steve Scherf et al.
# Submitted via: ExactAudioCopy v0.99pb4
#
DISCID=b010c60f
DTITLE=BLACK SABBATH - Blackest Sabbath
DYEAR=1989
DGENRE=Heavy Metal
TTITLE0=Black Sabbath
TTITLE1=Paranoid
TTITLE2=Iron Man
TTITLE3=Snowblind
TTITLE4=Sabbath Bloody Sabbath
TTITLE5=Hole In The Sky
TTITLE6=Rock and Roll Doctor
TTITLE7=Never Say Die
TTITLE8=Lady Evil
TTITLE9=Turn Up The Night
TTITLE10=The Sign Of The Southern Cross/Heaven and Hell
TTITLE11=Children Of The Sea (Live)
TTITLE12=Digital Bitch
TTITLE13=Seventh Star
TTITLE14=Born To Lose
EXTD=YEAR: 1989
EXTT0=
EXTT1=
EXTT2=
EXTT3=
EXTT4=
EXTT5=
EXTT6=
EXTT7=
EXTT8=
EXTT9=
EXTT10=
EXTT11=
EXTT12=
EXTT13=
EXTT14=
PLAYORDER=
